<svg id="mssvg" xmlns="http://www.w3.org/2000/svg" viewBox="0 0 502.41637 78.10826">
  <defs>
    <style>
      .s_cls-1 {
        fill: none;
        stroke: #000;
        stroke-miterlimit: 10;
      }

      .s_cls-2 {
        fill: #231f20;
      }
    </style>
  </defs>
  <g id="s_a">
    <rect id="of-1" class="s_cls-1 of sh" x="6.51184" y="6.43481" width="27.6558" height="27.6558" transform="translate(-8.37053 20.31717) rotate(-45)"/>
    <rect id="bf-1" class="s_cls-1 bf sh" x=".5" y="9.11984" width="39.67947" height="22.28573"/>
  </g>
  <g id="s_b">
    <rect id="of-2" class="s_cls-1 of sh" x="72.47425" y="6.43481" width="27.6558" height="27.6558" transform="translate(10.94942 66.95964) rotate(-45)"/>
    <rect id="bf-2" class="s_cls-1 bf sh" x="66.46241" y="9.11984" width="39.67947" height="22.28573"/>
  </g>
  <g id="s_c">
    <rect id="of-3" class="s_cls-1 of sh" x="138.43666" y="6.43481" width="27.6558" height="27.6558" transform="translate(30.26936 113.60211) rotate(-45)"/>
    <rect id="bf-3" class="s_cls-1 bf sh" x="132.42483" y="9.11984" width="39.67947" height="22.28573"/>
  </g>
  <g id="s_d">
    <rect id="of-4" class="s_cls-1 of sh" x="204.39908" y="6.43481" width="27.6558" height="27.6558" transform="translate(49.5893 160.24458) rotate(-45)"/>
    <rect id="bf-4" class="s_cls-1 bf sh" x="198.38724" y="9.11984" width="39.67947" height="22.28573"/>
  </g>
  <g id="s_e">
    <rect id="of-5" class="s_cls-1 of sh" x="270.36149" y="6.43481" width="27.6558" height="27.6558" transform="translate(68.90925 206.88706) rotate(-45)"/>
    <rect id="bf-5" class="s_cls-1 bf sh" x="264.34966" y="9.11984" width="39.67947" height="22.28573"/>
  </g>
  <g id="s_f">
    <rect id="of-6" class="s_cls-1 of sh" x="336.32391" y="6.43481" width="27.6558" height="27.6558" transform="translate(88.22919 253.52953) rotate(-45)"/>
    <rect id="bf-6" class="s_cls-1 bf sh" x="330.31207" y="9.11984" width="39.67947" height="22.28573"/>
  </g>
  <g id="s_g">
    <rect id="of-7" class="s_cls-1 of sh" x="402.28632" y="6.43481" width="27.6558" height="27.6558" transform="translate(107.54914 300.172) rotate(-45)"/>
    <rect id="bf-7" class="s_cls-1 bf sh" x="396.27449" y="9.11984" width="39.67947" height="22.28573"/>
  </g>
  <g id="s_h">
    <rect id="of-8" class="s_cls-1 of sh" x="468.24874" y="6.43481" width="27.6558" height="27.6558" transform="translate(126.86908 346.81447) rotate(-45)"/>
    <rect id="bf-8" class="s_cls-1 bf sh" x="462.2369" y="9.11984" width="39.67947" height="22.28573"/>
  </g>
  <path class="s_cls-2" d="M17.12223,66.97154l-1.21826,3.88672h-4.72803l6.75879-19.34766h5.42432l6.14941,19.34766h-4.93115l-1.04443-3.88672h-6.41064Zm3.42285-11.13867l-2.34961,7.5708h4.38037l-2.03076-7.5708Z"/>
  <path class="s_cls-2" d="M78.92252,51.5106h7.86084c2.43652,0,3.8291,.26123,5.07617,.98633,1.36328,.81201,2.20459,2.32031,2.20459,3.94482,0,1.85645-.87012,3.16162-2.72656,4.06104,2.2334,1.07324,3.19043,2.49463,3.19043,4.72803,0,1.82764-.7251,3.39404-2.00146,4.35107-1.24707,.95752-2.61035,1.27637-5.36621,1.27637h-8.23779v-19.34766Zm8.41211,7.5127c1.56641,0,2.37842-.63818,2.37842-1.91455,0-1.24707-.81201-1.88525-2.37842-1.88525h-4.14795v3.7998h4.14795Zm-.05811,8.12207c1.82715,0,2.81348-.81201,2.81348-2.34961,0-1.53711-.98633-2.34961-2.81348-2.34961h-4.08984v4.69922h4.08984Z"/>
  <path class="s_cls-2" d="M156.8068,57.68931c-.43555-1.85645-1.85645-2.92969-3.91602-2.92969-3.19092,0-5.01855,2.34912-5.01855,6.41016,0,4.03223,1.82764,6.43994,4.90234,6.43994,2.2334,0,3.56787-1.10254,4.08984-3.42285h4.6123c-.52197,4.37988-3.7998,7.10645-8.58594,7.10645-5.71436,0-9.36963-3.94482-9.36963-10.12354,0-6.20752,3.59717-10.09424,9.34033-10.09424,4.67041,0,7.86084,2.49463,8.3833,6.61377h-4.43799Z"/>
  <path class="s_cls-2" d="M210.31071,51.5106h6.55566c3.91553,0,5.9751,.69629,7.71582,2.66846,1.53711,1.74072,2.37842,4.17725,2.37842,6.90381,0,2.84277-.92822,5.48242-2.52344,7.22266-1.68262,1.79834-3.8291,2.55273-7.42578,2.55273h-6.70068v-19.34766Zm7.28076,15.63477c1.97217,0,3.16162-.55127,3.97363-1.88525,.63818-1.07324,.95752-2.40771,.95752-4.09033,0-1.62402-.29004-2.90039-.92822-4.00293-.75439-1.33398-1.94336-1.94336-3.71289-1.94336h-3.21973v11.92188h2.92969Z"/>
  <path class="s_cls-2" d="M291.7775,55.22349h-10.06543v3.771h8.78906v3.42285h-8.78906v4.72803h10.23926v3.71289h-14.59082v-19.34766h14.41699v3.71289Z"/>
  <path class="s_cls-2" d="M357.91325,55.22349h-9.8623v4.32227h8.64453v3.56787h-8.64453v7.74463h-4.35059v-19.34766h14.21289v3.71289Z"/>
  <path class="s_cls-2" d="M424.84879,60.15464v10.70361h-2.61133l-.6084-2.46582c-1.33496,2.08887-2.98828,2.90088-5.80176,2.90088-5.48242,0-8.84766-3.7998-8.84766-9.97852,0-6.20752,3.71289-10.23926,9.39844-10.23926,4.23535,0,7.42578,2.40771,8.3252,6.29443l-4.20605,.26123c-.46387-1.79834-1.97266-2.87158-4.08984-2.87158-3.13281,0-5.07617,2.37842-5.07617,6.26514,0,4.17725,1.88574,6.67188,5.04688,6.67188,2.46582,0,4.32227-1.5376,4.75781-3.97412h-4.72852v-3.56787h8.44141Z"/>
  <path class="s_cls-2" d="M478.52555,62.50425v8.354h-4.35059v-19.34766h4.35059v7.28076h7.10645v-7.28076h4.35156v19.34766h-4.35156v-8.354h-7.10645Z"/>
</svg>